<?xml version="1.0" encoding="UTF-8" standalone="no"?>
<!-- Generator: Adobe Illustrator 15.1.0, SVG Export Plug-In . SVG Version: 6.00 Build 0)  -->

<svg
   xmlns:dc="http://purl.org/dc/elements/1.1/"
   xmlns:cc="http://creativecommons.org/ns#"
   xmlns:rdf="http://www.w3.org/1999/02/22-rdf-syntax-ns#"
   xmlns:svg="http://www.w3.org/2000/svg"
   xmlns="http://www.w3.org/2000/svg"
   xmlns:sodipodi="http://sodipodi.sourceforge.net/DTD/sodipodi-0.dtd"
   xmlns:inkscape="http://www.inkscape.org/namespaces/inkscape"
   version="1.1"
   id="Layer_1"
   x="0px"
   y="0px"
   width="1020.6836"
   height="183.70436"
   viewBox="0 0 1020.6836 183.70436"
   enable-background="new 0 0 1024 1024"
   xml:space="preserve"
   inkscape:version="0.48.4 r9939"
   sodipodi:docname="cmu-db-group.svg"
   inkscape:export-filename="/home/pavlo/Dropbox/The Habitat/NewSQL/cmu-db-group.png"
   inkscape:export-xdpi="58.270309"
   inkscape:export-ydpi="58.270309"><metadata
     id="metadata3066"><rdf:RDF><cc:Work
         rdf:about=""><dc:format>image/svg+xml</dc:format><dc:type
           rdf:resource="http://purl.org/dc/dcmitype/StillImage" /><dc:title /></cc:Work></rdf:RDF></metadata><defs
     id="defs3064" /><sodipodi:namedview
     pagecolor="#ffffff"
     bordercolor="#666666"
     borderopacity="1"
     objecttolerance="10"
     gridtolerance="10"
     guidetolerance="10"
     inkscape:pageopacity="0"
     inkscape:pageshadow="2"
     inkscape:window-width="1845"
     inkscape:window-height="1060"
     id="namedview3062"
     showgrid="false"
     inkscape:zoom="0.65722656"
     inkscape:cx="254.40491"
     inkscape:cy="89.031561"
     inkscape:window-x="-2"
     inkscape:window-y="-3"
     inkscape:window-maximized="1"
     inkscape:current-layer="Layer_1"
     fit-margin-top="0"
     fit-margin-left="0"
     fit-margin-right="0"
     fit-margin-bottom="0" /><g
     id="g3178"
     transform="translate(-76.5312,-413.13285)"><g
       id="g3132"><path
         d="m 280.769,460.07664 c 0,-22.40356 11.15334,-33.17954 29.4927,-33.17954 8.97998,0 16.82586,3.8725 21.26945,10.01926 0.4722,0.6639 0.66187,1.32581 0.66187,1.98366 0,1.70317 -1.32378,3.02293 -3.02694,3.02293 -0.84957,0 -1.70115,-0.28251 -2.4579,-1.22491 -3.21463,-4.44359 -9.35937,-7.94075 -16.4485,-7.94075 -14.55769,0 -22.87577,8.7883 -22.87577,27.31935 0,19.66112 8.32012,27.2245 22.87577,27.2245 6.23957,0 12.76167,-2.45587 16.4485,-7.75305 0.6619,-0.94643 1.70116,-1.22493 2.4579,-1.22493 1.70114,0 3.02694,1.31977 3.02694,3.02293 0,0.75271 -0.18967,1.22896 -0.56703,1.79802 -4.16106,6.04787 -12.66682,10.01723 -21.36429,10.01723 -18.33936,0 -29.4927,-9.82956 -29.4927,-33.0847 z"
         id="path2990"
         inkscape:connector-curvature="0"
         style="fill:#231f20" /><path
         d="m 351.57973,473.02396 -6.90149,17.30011 c -0.47221,1.23096 -1.51347,2.26618 -3.11979,2.26618 -1.79599,0 -3.21463,-1.50743 -3.21463,-3.21059 0,-0.37736 0.0949,-1.03927 0.28453,-1.42067 l 23.06546,-58.31945 c 0.47221,-1.13411 1.32378,-2.17537 3.02494,-2.17537 1.6063,0 2.64759,1.04126 3.11979,2.17537 l 23.06546,58.31945 c 0.18967,0.47626 0.28452,1.13412 0.28452,1.42067 0,1.70316 -1.32378,3.21059 -3.30746,3.21059 -1.60629,0 -2.64758,-0.94037 -3.11978,-2.16932 l -6.80663,-17.39697 h -26.37492 z m 13.13902,-34.78179 -11.15536,28.92159 h 22.40558 l -11.25022,-28.92159 z"
         id="path2992"
         inkscape:connector-curvature="0"
         style="fill:#231f20" /><path
         d="m 407.73793,489.38168 c 0,1.79801 -1.41863,3.21059 -3.21463,3.21059 -1.79802,0 -3.21464,-1.41258 -3.21464,-3.21059 v -57.94817 c 0,-1.79397 1.41662,-3.21463 3.21464,-3.21463 h 18.80954 c 10.49347,0 18.05482,7.94476 18.05482,18.0528 0,9.74279 -6.71179,17.58664 -16.92072,18.05885 l 17.3001,23.06747 c 0.47221,0.56099 0.6619,1.31975 0.6619,1.98166 0,1.79801 -1.41864,3.21059 -3.21463,3.21059 -0.94441,0 -1.98368,-0.37332 -2.74042,-1.50743 l -19.19094,-26.75229 h -9.54703 v 25.05115 z m 0,-30.91135 h 15.78459 c 6.61695,0 11.34304,-5.388 11.34304,-12.19865 0,-6.99026 -4.82094,-12.1926 -11.62756,-12.1926 h -15.50208 v 24.39125 z"
         id="path2994"
         inkscape:connector-curvature="0"
         style="fill:#231f20" /><path
         d="m 497.35618,430.58395 v 58.79773 c 0,1.79801 -1.41863,3.21059 -3.21463,3.21059 -1.1341,0 -1.98568,-0.46616 -2.64758,-1.31975 l -33.27439,-50.1951 v 48.40111 c 0,1.70116 -1.41863,3.11374 -3.11776,3.11374 -1.70317,0 -3.11979,-1.41258 -3.11979,-3.11374 v -58.89458 c 0,-1.70317 1.41662,-3.11978 3.11979,-3.11978 1.1341,0 2.07851,0.65786 2.55273,1.32176 l 33.46408,50.28995 v -48.49193 c 0,-1.70317 1.41863,-3.11978 3.11978,-3.11978 1.69914,0 3.11777,1.41661 3.11777,3.11978 z"
         id="path2996"
         inkscape:connector-curvature="0"
         style="fill:#231f20" /><path
         d="m 514.75517,491.83955 c -1.796,0 -3.21464,-1.41661 -3.21464,-3.21463 v -57.19141 c 0,-1.79397 1.41864,-3.21463 3.21464,-3.21463 h 30.34427 c 1.60632,0 2.93011,1.32378 2.93011,2.93212 0,1.60629 -1.32379,2.92808 -2.93011,2.92808 H 517.9698 v 22.78293 h 20.79724 c 1.60631,0 2.9301,1.32178 2.9301,2.92808 0,1.60834 -1.32379,2.93213 -2.9301,2.93213 H 517.9698 v 23.2531 h 28.1689 c 1.60632,0 2.9301,1.3238 2.9301,2.93213 0,1.60629 -1.32378,2.92808 -2.9301,2.92808 h -31.38353 z"
         id="path2998"
         inkscape:connector-curvature="0"
         style="fill:#231f20" /><path
         d="M 604.18574,479.73776 V 466.0337 h -15.78662 c -1.6063,0 -2.93009,-1.32581 -2.93009,-2.9321 0,-1.60834 1.32178,-2.9281 2.93009,-2.9281 h 19.0961 c 1.51348,0 2.9301,1.31976 2.9301,2.9281 v 16.54133 c 0,1.1341 -0.37938,2.07851 -1.22895,3.11978 -4.53843,5.29315 -11.15536,10.39661 -22.59325,10.39661 -18.33933,0 -29.4927,-9.82955 -29.4927,-33.08469 0,-22.40356 11.15337,-33.17955 29.4927,-33.17955 8.97999,0 16.82791,3.87251 21.26946,10.01925 0.4722,0.66391 0.6619,1.32582 0.6619,1.98368 0,1.70316 -1.32379,3.0229 -3.02495,3.0229 -0.85159,0 -1.70317,-0.2825 -2.45789,-1.22488 -3.21463,-4.44359 -9.26452,-7.94075 -16.44852,-7.94075 -14.55766,0 -22.87575,8.7883 -22.87575,27.31935 0,19.66111 8.3201,27.22449 22.87575,27.22449 8.79032,9.4e-4 14.46283,-3.6828 17.58262,-7.56136 z"
         id="path3000"
         inkscape:connector-curvature="0"
         style="fill:#231f20" /><path
         d="m 629.6223,489.38168 c 0,1.70316 -1.41862,3.21059 -3.21462,3.21059 -1.796,0 -3.21463,-1.50743 -3.21463,-3.21059 V 430.6788 c 0,-1.70318 1.41863,-3.21463 3.21463,-3.21463 1.796,0 3.21462,1.51145 3.21462,3.21463 v 58.70288 z"
         id="path3002"
         inkscape:connector-curvature="0"
         style="fill:#231f20" /><path
         d="m 647.96166,491.83955 c -1.79599,0 -3.21464,-1.41661 -3.21464,-3.21463 v -57.19141 c 0,-1.79397 1.41865,-3.21463 3.21464,-3.21463 h 30.3463 c 1.6063,0 2.92606,1.32378 2.92606,2.93212 0,1.60629 -1.31976,2.92808 -2.92606,2.92808 h -27.13167 v 22.78293 h 20.79725 c 1.60631,0 2.9301,1.32178 2.9301,2.92808 0,1.60834 -1.32379,2.93213 -2.9301,2.93213 h -20.79725 v 23.2531 h 28.17093 c 1.60833,0 2.92807,1.3238 2.92807,2.93213 0,1.60629 -1.31974,2.92808 -2.92807,2.92808 h -31.38556 z"
         id="path3004"
         inkscape:connector-curvature="0"
         style="fill:#231f20" /><path
         d="m 741.26876,479.73776 -19.75798,-36.77151 v 46.51026 c 0,1.70116 -1.41662,3.11374 -3.11978,3.11374 -1.69915,0 -3.11778,-1.41258 -3.11778,-3.11374 v -58.89459 c 0,-1.70316 1.41863,-3.11977 3.11778,-3.11977 1.42065,0 2.36506,0.84955 2.83726,1.79396 l 22.87778,42.82344 22.96658,-42.82344 c 0.38138,-0.65786 1.1341,-1.79396 2.83727,-1.79396 1.70316,0 3.1218,1.41661 3.1218,3.11977 v 58.89459 c 0,1.70116 -1.41864,3.11374 -3.1218,3.11374 -1.70317,0 -3.11778,-1.41258 -3.11778,-3.11374 v -46.51026 l -19.85081,36.77151 c -0.66393,1.23098 -1.70317,1.80004 -2.83526,1.80004 -0.94441,0 -2.17537,-0.47624 -2.83728,-1.80004 z"
         id="path3006"
         inkscape:connector-curvature="0"
         style="fill:#231f20" /><path
         d="m 791.3771,491.83955 c -1.79398,0 -3.21665,-1.41661 -3.21665,-3.21463 v -57.19141 c 0,-1.79397 1.42267,-3.21463 3.21665,-3.21463 h 30.34428 c 1.60834,0 2.93212,1.32378 2.93212,2.93212 0,1.60629 -1.32378,2.92808 -2.93212,2.92808 h -27.13166 v 22.78293 h 20.79926 c 1.60832,0 2.93212,1.32178 2.93212,2.92808 0,1.60834 -1.3238,2.93213 -2.93212,2.93213 h -20.79926 v 23.2531 h 28.17293 c 1.60832,0 2.9281,1.3238 2.9281,2.93213 0,1.60629 -1.31978,2.92808 -2.9281,2.92808 H 791.3771 z"
         id="path3008"
         inkscape:connector-curvature="0"
         style="fill:#231f20" /><path
         d="m 869.46262,485.78968 c 1.70317,0 3.02697,1.32177 3.02697,3.02291 0,1.70317 -1.3238,3.02495 -3.02697,3.02495 h -29.11534 c -1.79801,0 -3.21262,-1.41661 -3.21262,-3.21463 v -57.94613 c 0,-1.79802 1.41461,-3.21463 3.21262,-3.21463 1.798,0 3.21261,1.41661 3.21261,3.21463 v 55.1129 h 25.90273 z"
         id="path3010"
         inkscape:connector-curvature="0"
         style="fill:#231f20" /><path
         d="m 915.12736,485.78968 c 1.69914,0 3.02293,1.32177 3.02293,3.02291 0,1.70317 -1.32379,3.02495 -3.02293,3.02495 H 886.008 c -1.79801,0 -3.21261,-1.41661 -3.21261,-3.21463 v -57.94613 c 0,-1.79802 1.4146,-3.21463 3.21261,-3.21463 1.79801,0 3.21665,1.41661 3.21665,3.21463 v 55.1129 h 25.90271 z"
         id="path3012"
         inkscape:connector-curvature="0"
         style="fill:#231f20" /><path
         d="m 919.38327,460.07664 c 0,-22.40356 11.15336,-33.17954 29.4927,-33.17954 18.33933,0 29.4927,10.778 29.4927,33.17954 0,22.21386 -11.15337,33.0847 -29.4927,33.0847 -18.33934,0 -29.4927,-10.87084 -29.4927,-33.0847 z m 6.61897,0 c 0,18.43219 8.4109,27.2245 22.87574,27.2245 14.46485,0 22.87978,-8.79231 22.87978,-27.2245 0,-18.53105 -8.41493,-27.31935 -22.87978,-27.31935 -14.46484,0 -22.87574,8.79031 -22.87574,27.31935 z"
         id="path3014"
         inkscape:connector-curvature="0"
         style="fill:#231f20" /><path
         d="m 1034.5309,430.58395 v 58.79773 c 0,1.79801 -1.4226,3.21059 -3.2166,3.21059 -1.1342,0 -1.9857,-0.46616 -2.6476,-1.31975 l -33.27241,-50.1951 v 48.40111 c 0,1.70116 -1.41862,3.11374 -3.1177,3.11374 -1.70317,0 -3.12188,-1.41258 -3.12188,-3.11374 v -58.89458 c 0,-1.70317 1.41871,-3.11978 3.12188,-3.11978 1.13406,0 2.07647,0.65786 2.55071,1.32176 l 33.462,50.28995 v -48.49193 c 0,-1.70317 1.4227,-3.11978 3.1219,-3.11978 1.6991,0 3.1197,1.41661 3.1197,3.11978 z"
         id="path3016"
         inkscape:connector-curvature="0"
         style="fill:#231f20" /></g><g
       id="g3163"><path
         d="m 304.92126,574.66271 c 13.46736,0 21.56837,-6.10326 21.56837,-24.40826 0,-18.305 -8.10101,-24.51353 -21.56837,-24.51353 h -8.10101 v 19.72136 17.61955 c 0,3.03607 -2.46187,5.49914 -5.49914,5.49914 h -0.83858 c -3.22627,0 -5.86641,-2.64011 -5.86641,-5.86639 V 545.3235 520.9009 c 0,-3.36625 2.73584,-6.10207 6.10327,-6.10207 h 14.20307 c 20.93674,0 34.19357,9.46951 34.19357,35.45682 0,25.9873 -13.25683,35.35034 -34.19357,35.35034 h -14.20307 c -3.36743,0 -6.10327,-2.73582 -6.10327,-6.10325 0,-2.63893 2.13532,-4.78141 4.77424,-4.78979 l 15.5309,-0.0502 z"
         id="path3018"
         inkscape:connector-curvature="0"
         style="fill:#231f20" /><path
         d="m 360.57434,567.18975 -6.41788,15.25575 c -0.94742,2.20828 -2.94516,3.99667 -5.68098,3.99667 -3.26217,0 -5.9968,-2.73342 -5.9968,-5.99679 0,-0.63043 0.10528,-1.47258 0.42109,-2.20948 l 24.82814,-60.4919 c 0.63042,-1.47258 2.31475,-3.78852 5.57572,-3.78852 3.26097,0 4.94409,2.31594 5.57571,3.78852 l 24.82814,60.4919 c 0.31581,0.7357 0.42108,1.57785 0.42108,2.20948 0,3.26337 -2.73581,5.99679 -5.99678,5.99679 -2.73583,0 -4.73476,-1.78839 -5.681,-3.99667 l -6.41667,-15.25575 h -8.65367 c -2.76572,0 -5.04219,-2.2633 -5.06013,-5.02784 l -0.007,-1.09577 c -0.0179,-2.76572 2.23101,-5.02783 4.99672,-5.02783 h 4.61993 l -8.62616,-22.09351 -8.62614,22.09351"
         id="path3020"
         inkscape:connector-curvature="0"
         style="fill:#231f20" /><path
         d="m 431.48318,525.52799 v 54.81451 c 0,3.36505 -2.73582,6.10087 -6.10206,6.10087 -3.36624,0 -6.10207,-2.73462 -6.10207,-6.10087 v -54.81451 h -16.09671 c -2.94637,0 -5.36519,-2.41881 -5.36519,-5.36399 0,-2.94516 2.41882,-5.36637 5.36519,-5.36637 h 44.39637 c 2.94636,0 5.36637,2.42121 5.36637,5.36637 0,2.94518 -2.41881,5.36399 -5.36637,5.36399 h -16.09553 z"
         id="path3022"
         inkscape:connector-curvature="0"
         style="fill:#231f20" /><path
         d="m 665.14168,524.26595 c -8.73381,0 -11.9924,4.10433 -11.9924,8.31272 0,13.78199 38.40199,7.36411 38.40199,33.66603 0,12.83456 -9.04844,20.83029 -26.4084,20.83029 -12.52114,0 -22.51339,-6.20615 -26.61653,-12.83455 -0.52755,-0.84217 -0.84336,-1.89487 -0.84336,-2.94756 0,-3.15691 2.52529,-5.67979 5.57691,-5.67979 2.31594,0 3.57679,1.26324 4.62829,2.31354 4.42014,4.41894 9.99466,7.99692 17.25469,7.99692 9.57478,0 14.20307,-3.15689 14.20307,-9.67885 0,-15.35983 -38.39959,-8.31153 -38.39959,-33.66603 0,-10.41573 7.46698,-19.25361 24.19652,-19.25361 10.52101,0 19.67471,3.89258 23.88311,9.88819 0.63042,0.94743 1.05151,2.10659 1.05151,3.36623 0,3.05284 -2.52528,5.57691 -5.6798,5.57691 -1.47377,0 -2.94635,-0.84215 -4.52541,-2.31353 -3.26336,-3.15691 -8.73261,-5.57691 -14.7306,-5.57691 z"
         id="path3024"
         inkscape:connector-curvature="0"
         style="fill:#231f20" /><path
         d="m 713.42826,544.57346 h 19.88525 c 2.94636,0 5.36637,2.41762 5.36637,5.36279 0,2.94636 -2.42001,5.36637 -5.36637,5.36637 h -19.88525 v 19.36009 h 27.88337 c 3.04923,0 5.46924,2.41762 5.46924,5.46805 0,3.05163 -2.42001,5.47164 -5.46924,5.47164 h -33.98304 c -3.36625,0 -6.10327,-2.73702 -6.10327,-6.10086 v -58.60183 c 0,-3.36626 2.73583,-6.10447 6.10327,-6.10447 h 32.82388 c 3.05162,0 5.47164,2.42121 5.47164,5.47165 0,3.05403 -2.42002,5.47164 -5.47164,5.47164 h -26.72421 v 18.83493 z"
         id="path3026"
         inkscape:connector-curvature="0"
         style="fill:#231f20" /><path
         d="m 827.57911,558.35425 h -14.31073 c -2.94396,0 -5.36397,-2.42121 -5.36397,-5.36637 0,-2.94516 2.42001,-5.36398 5.36397,-5.36398 h 20.41039 c 2.94637,0 5.78747,2.52647 5.78747,5.57452 v 16.83361 c 0,2.41881 -0.52517,3.99667 -1.7896,5.57451 -5.04936,6.73609 -16.2008,11.46845 -27.45749,11.46845 -20.93675,0 -32.93154,-11.04617 -32.93154,-36.82173 0,-24.93342 11.99479,-36.92701 32.93154,-36.92701 12.72928,0 21.042,5.05055 25.35448,11.36197 0.83858,1.26324 1.15678,2.31354 1.15678,3.47152 0,3.05043 -2.52527,5.57691 -5.67979,5.57691 -1.47377,0 -2.94876,-0.63162 -4.31487,-2.1066 -4.31247,-4.73475 -8.83908,-7.3641 -16.5166,-7.3641 -13.99492,0 -20.30634,8.62854 -20.30634,25.98731 0,18.41146 6.31022,25.88083 20.30634,25.88083 7.78278,0 13.25442,-1.78718 17.35996,-5.9956 v -11.78424 z"
         id="path3028"
         inkscape:connector-curvature="0"
         style="fill:#231f20" /><path
         d="m 907.21578,550.25326 c 0,-24.93342 12.09767,-36.92701 33.35022,-36.92701 21.25259,0 33.35023,11.99359 33.35023,36.92701 0,24.6176 -12.09764,36.82173 -33.35023,36.82173 -21.25255,0 -33.35022,-12.20413 -33.35022,-36.82173 z m 12.62401,0 c 0,17.36116 6.83896,25.88083 20.72621,25.88083 13.88728,0 20.72623,-8.51967 20.72623,-25.88083 0,-17.46405 -6.83895,-25.98731 -20.72623,-25.98731 -13.88725,0 -20.72621,8.52326 -20.72621,25.98731 z"
         id="path3030"
         inkscape:connector-curvature="0"
         style="fill:#231f20" /><path
         d="m 983.80441,562.45738 v -42.39864 c 0,-3.36624 2.73347,-6.10207 6.10322,-6.10207 3.3663,0 6.10332,2.73463 6.10332,6.10207 v 42.39864 c 0,6.41667 2.41762,13.88607 14.30595,13.88607 11.8895,0 14.3084,-7.4694 14.3084,-13.88607 v -42.39864 c 0,-3.36624 2.7357,-6.10207 6.1031,-6.10207 3.3675,0 6.1034,2.73463 6.1034,6.10207 v 42.39864 c 0,11.99359 -5.2612,24.61761 -26.5138,24.61761 -21.25248,0 -26.51359,-12.62402 -26.51359,-24.61761 z"
         id="path3032"
         inkscape:connector-curvature="0"
         style="fill:#231f20" /><path
         d="m 1061.13,558.03844 v 22.30406 c 0,3.36625 -2.7358,6.10206 -6.1034,6.10206 -3.3649,0 -6.1007,-2.73462 -6.1007,-6.10206 v -59.44041 c 0,-3.36624 2.7345,-6.10326 6.1007,-6.10326 h 20.0959 c 12.3081,0 22.0923,6.83776 22.0923,21.56837 0,14.51647 -9.5735,21.67124 -22.0923,21.67124 l -2.694,-9.3e-4 c -2.7657,-0.003 -5.0422,-2.26689 -5.0601,-5.03142 l -0.01,-0.88164 c -0.019,-2.76572 2.2297,-5.02782 4.9955,-5.02782 h 1.8159 c 6.523,0 10.4157,-3.89141 10.4157,-10.72915 0,-6.94543 -3.9979,-10.6263 -10.4157,-10.6263 h -13.0439 v 21.35545 10.94209 z"
         id="path3034"
         inkscape:connector-curvature="0"
         style="fill:#231f20" /><path
         d="m 464.91594,567.61202 -6.41787,15.25696 c -0.94743,2.20827 -2.94516,3.99667 -5.68218,3.99667 -3.26098,0 -5.99679,-2.73462 -5.99679,-5.99681 0,-0.63161 0.10407,-1.47257 0.42108,-2.20946 l 24.82934,-60.4967 c 0.63161,-1.47258 2.31474,-3.78852 5.57691,-3.78852 3.26098,0 4.94529,2.31594 5.57571,3.78852 l 24.82935,60.4967 c 0.317,0.73569 0.42107,1.57665 0.42107,2.20946 0,3.26219 -2.73462,5.99681 -5.99679,5.99681 -2.73583,0 -4.73475,-1.7884 -5.68219,-3.99667 l -6.41786,-15.25696 h -8.65367 c -2.76573,0 -5.04219,-2.2633 -5.06013,-5.02783 l -0.007,-1.09577 c -0.0179,-2.76572 2.231,-5.02783 4.99672,-5.02783 h 4.62112 l -8.62736,-22.09592 -8.62734,22.09592"
         id="path3036"
         inkscape:connector-curvature="0"
         style="fill:#231f20" /><path
         d="m 589.36889,567.61202 -6.41788,15.25576 c -0.94623,2.20947 -2.94396,3.99787 -5.68099,3.99787 -3.26216,0 -5.99678,-2.73462 -5.99678,-5.99801 0,-0.63041 0.10406,-1.47137 0.42107,-2.20826 l 24.82934,-60.4955 c 0.63042,-1.47138 2.31474,-3.78732 5.57571,-3.78732 3.26098,0 4.9453,2.31594 5.57573,3.78732 l 24.82933,60.4955 c 0.31701,0.73569 0.42108,1.57665 0.42108,2.20826 0,3.26339 -2.73582,5.99801 -5.99679,5.99801 -2.73463,0 -4.73475,-1.7884 -5.67979,-3.99787 l -6.41906,-15.25576 h -8.65368 c -2.76572,0 -5.04218,-2.2633 -5.05894,-5.02783 l -0.005,-1.09577 c -0.0179,-2.76572 2.231,-5.02783 4.99672,-5.02783 h 4.61991 l -8.62735,-22.09472 -8.62734,22.09472"
         id="path3038"
         inkscape:connector-curvature="0"
         style="fill:#231f20" /><path
         d="m 522.03682,585.6036 c -3.36624,0 -6.10086,-2.73701 -6.10086,-6.10086 V 520.9009 c 0,-3.36625 2.73343,-6.10447 6.10086,-6.10447 h 18.93782 c 15.88619,0 21.56837,8.62855 21.56837,18.3086 0,6.94421 -3.47152,12.20532 -7.78399,14.30832 7.88687,3.05045 10.94089,8.73262 10.94089,16.93651 0,12.83574 -7.68112,21.25374 -22.82921,21.25374 h -20.83388 z m 11.89551,-36.59325 c -0.005,-1.39841 0.54549,-2.7418 1.53239,-3.7323 0.98691,-0.99048 2.3279,-1.54674 3.72632,-1.54674 h 1.78241 c 6.62841,0 9.36304,-3.78734 9.36304,-9.04844 0,-5.46924 -2.73463,-8.94195 -9.36304,-8.94195 h -12.83456 v 17.99039 10.30926 20.62214 h 14.72942 c 7.46818,0 10.41573,-3.99906 10.41573,-10.31285 0,-6.41669 -3.4715,-10.30929 -10.41573,-10.30929 h -3.88542 c -2.78009,9.4e-4 -5.03859,-2.24774 -5.05056,-5.03022 z"
         id="path3040"
         inkscape:connector-curvature="0"
         style="fill:#231f20" /><path
         d="m 900.21414,576.22261 -15.20552,-18.91627 c 8.50414,-2.46308 14.34301,-9.28768 14.34301,-20.61018 0,-14.7294 -9.7853,-21.56836 -22.09351,-21.56836 h -20.09578 c -3.36624,0 -6.10086,2.73582 -6.10086,6.10326 v 59.44161 c 0,3.36624 2.73342,6.10206 6.10086,6.10206 3.36743,0 6.10327,-2.73463 6.10327,-6.10206 V 558.3686 547.42651 526.07108 h 13.04388 c 6.41789,0 10.41574,3.67967 10.41574,10.62508 0,6.83777 -3.89259,10.73035 -10.41574,10.73035 h -1.8135 c -2.76813,0 -5.01588,2.26211 -4.99793,5.02664 l 0.005,0.88163 c 0.007,0.90915 0.27394,1.75251 0.70578,2.48821 l -0.13039,0.008 20.56233,27.96711 c 1.0515,1.3697 2.94396,2.20826 4.73356,2.20826 3.36623,0 6.10325,-2.73462 6.10325,-6.10086 0,-1.15916 -0.31701,-2.42001 -1.26323,-3.68326 z"
         id="path3042"
         inkscape:connector-curvature="0"
         style="fill:#231f20" /></g></g><g
     id="g3044"
     transform="translate(-88.5312,-417.3272)"><g
       id="g3046"><path
         style="fill:#231f20"
         inkscape:connector-curvature="0"
         id="path3048"
         d="m 175.917,483.266 c 0,-8.151 -6.387,-14.847 -14.528,-15.247 -41.244,-2.028 -72.672,-12.545 -72.672,-25.216 v 33.04 c 0,12.406 30.127,22.747 70.096,25.078 4.439,0.259 8.787,-1.325 12.022,-4.375 3.236,-3.049 5.083,-7.3 5.083,-11.747 v -1.533 z" /><path
         style="fill:#231f20"
         inkscape:connector-curvature="0"
         id="path3050"
         d="m 205.924,480.732 c 0.084,4.796 2.296,9.306 6.036,12.309 3.74,3.003 8.621,4.186 13.323,3.237 22.853,-4.61 37.835,-12.332 37.835,-21.082 v -33.04 c 0,9.481 -17.597,17.758 -43.738,22.173 -7.869,1.329 -13.6,8.208 -13.46,16.188 l 0.004,0.215 z" /><path
         style="fill:#231f20"
         inkscape:connector-curvature="0"
         id="path3052"
         d="m 156.297,533.537 c 0.001,-4.309 1.725,-8.438 4.786,-11.469 3.062,-3.032 7.208,-4.714 11.516,-4.674 0.927,0.009 1.857,0.013 2.792,0.013 48.162,0 87.202,-11.446 87.202,-25.57 v 33.039 c 0,14.124 -39.041,25.571 -87.202,25.571 -1.041,0 -2.078,-0.006 -3.11,-0.016 -8.854,-0.092 -15.986,-7.296 -15.983,-16.151 l -0.001,-0.743 z" /><path
         style="fill:#231f20"
         inkscape:connector-curvature="0"
         id="path3054"
         d="m 175.917,584.202 c 0,-8.589 -6.722,-15.682 -15.299,-16.127 -40.863,-2.12 -71.9,-12.585 -71.9,-25.177 v 33.039 c 0,12.385 30.023,22.713 69.89,25.066 4.491,0.266 8.89,-1.335 12.165,-4.419 3.275,-3.084 5.144,-7.385 5.144,-11.883 v -0.499 z" /><path
         style="fill:#231f20"
         inkscape:connector-curvature="0"
         id="path3056"
         d="m 205.921,581.261 c -0.141,-7.995 5.576,-14.859 13.46,-16.19 26.141,-4.416 43.738,-12.692 43.738,-22.174 v 33.04 c 0,8.725 -14.899,16.428 -37.643,21.041 -4.744,0.963 -9.669,-0.235 -13.445,-3.264 -3.776,-3.029 -6.025,-7.582 -6.11,-12.422 l 0,-0.031 z" /><path
         style="fill:none;stroke:#231f20;stroke-width:5.83760023;stroke-miterlimit:10"
         inkscape:connector-curvature="0"
         id="path3058"
         d="M 136.041,468.549 C 109.5,464.223 91.45,455.709 91.45,445.912 c 0,-14.177 37.796,-25.666 84.42,-25.666 46.626,0 84.423,11.489 84.423,25.666 0,7.693 -10.211,14.608 -27.298,19.023"
         stroke-miterlimit="10" /><path
         style="fill:#231f20"
         inkscape:connector-curvature="0"
         id="path3060"
         d="m 132.151,528.102 c 0.005,5.036 -2.396,9.771 -6.461,12.744 -4.066,2.972 -9.308,3.824 -14.105,2.291 C 97.349,538.585 88.66,532.518 88.66,525.856 v -33.045 c 0,7.871 12.125,14.911 31.195,19.602 7.206,1.772 12.288,8.232 12.296,15.652 v 0.037 z" /></g></g></svg>