<svg width="1020.6836" height="183.70436" xmlns="http://www.w3.org/2000/svg">
 <metadata id="metadata3066">image/svg+xml</metadata>

 <g>
  <title>background</title>
  <rect fill="none" id="canvas_background" height="402" width="582" y="-1" x="-1"/>
 </g>
 <g>
  <title>Layer 1</title>
  <g id="g3178">
   <g id="g3132">
    <path fill="#ffffff" id="path2990" d="m204.237803,46.943797c0,-22.40356 11.15334,-33.17954 29.4927,-33.17954c8.97998,0 16.82586,3.8725 21.26945,10.01926c0.4722,0.6639 0.66187,1.32581 0.66187,1.98366c0,1.70317 -1.32378,3.02293 -3.02694,3.02293c-0.84957,0 -1.70115,-0.28251 -2.4579,-1.22491c-3.21463,-4.44359 -9.35937,-7.94075 -16.4485,-7.94075c-14.55769,0 -22.87577,8.7883 -22.87577,27.31935c0,19.66112 8.32012,27.2245 22.87577,27.2245c6.23957,0 12.76167,-2.45587 16.4485,-7.75305c0.6619,-0.94643 1.70116,-1.22493 2.4579,-1.22493c1.70114,0 3.02694,1.31977 3.02694,3.02293c0,0.75271 -0.18967,1.22896 -0.56703,1.79802c-4.16106,6.04787 -12.66682,10.01723 -21.36429,10.01723c-18.33936,0 -29.4927,-9.82956 -29.4927,-33.0847z"/>
    <path fill="#ffffff" id="path2992" d="m275.048533,59.891117l-6.90149,17.30011c-0.47221,1.23096 -1.51347,2.26618 -3.11979,2.26618c-1.79599,0 -3.21463,-1.50743 -3.21463,-3.21059c0,-0.37736 0.0949,-1.03927 0.28453,-1.42067l23.06546,-58.31945c0.47221,-1.13411 1.32378,-2.17537 3.02494,-2.17537c1.6063,0 2.64759,1.04126 3.11979,2.17537l23.06546,58.31945c0.18967,0.47626 0.28452,1.13412 0.28452,1.42067c0,1.70316 -1.32378,3.21059 -3.30746,3.21059c-1.60629,0 -2.64758,-0.94037 -3.11978,-2.16932l-6.80663,-17.39697l-26.37492,0zm13.13902,-34.78179l-11.15536,28.92159l22.40558,0l-11.25022,-28.92159z"/>
    <path fill="#ffffff" id="path2994" d="m331.206733,76.248837c0,1.79801 -1.41863,3.21059 -3.21463,3.21059c-1.79802,0 -3.21464,-1.41258 -3.21464,-3.21059l0,-57.94817c0,-1.79397 1.41662,-3.21463 3.21464,-3.21463l18.80954,0c10.49347,0 18.05482,7.94476 18.05482,18.0528c0,9.74279 -6.71179,17.58664 -16.92072,18.05885l17.3001,23.06747c0.47221,0.56099 0.6619,1.31975 0.6619,1.98166c0,1.79801 -1.41864,3.21059 -3.21463,3.21059c-0.94441,0 -1.98368,-0.37332 -2.74042,-1.50743l-19.19094,-26.75229l-9.54703,0l0,25.05115l0.00201,0zm0,-30.91135l15.78459,0c6.61695,0 11.34304,-5.388 11.34304,-12.19865c0,-6.99026 -4.82094,-12.1926 -11.62756,-12.1926l-15.50208,0l0,24.39125l0.00201,0z"/>
    <path fill="#ffffff" id="path2996" d="m420.824983,17.451107l0,58.79773c0,1.79801 -1.41863,3.21059 -3.21463,3.21059c-1.1341,0 -1.98568,-0.46616 -2.64758,-1.31975l-33.27439,-50.1951l0,48.40111c0,1.70116 -1.41863,3.11374 -3.11776,3.11374c-1.70317,0 -3.11979,-1.41258 -3.11979,-3.11374l0,-58.89458c0,-1.70317 1.41662,-3.11978 3.11979,-3.11978c1.1341,0 2.07851,0.65786 2.55273,1.32176l33.46408,50.28995l0,-48.49193c0,-1.70317 1.41863,-3.11978 3.11978,-3.11978c1.69914,0 3.11777,1.41661 3.11777,3.11978z"/>
    <path fill="#ffffff" id="path2998" d="m438.223973,78.706707c-1.796,0 -3.21464,-1.41661 -3.21464,-3.21463l0,-57.19141c0,-1.79397 1.41864,-3.21463 3.21464,-3.21463l30.34427,0c1.60632,0 2.93011,1.32378 2.93011,2.93212c0,1.60629 -1.32379,2.92808 -2.93011,2.92808l-27.12964,0l0,22.78293l20.79724,0c1.60631,0 2.9301,1.32178 2.9301,2.92808c0,1.60834 -1.32379,2.93213 -2.9301,2.93213l-20.79724,0l0,23.2531l28.1689,0c1.60632,0 2.9301,1.3238 2.9301,2.93213c0,1.60629 -1.32378,2.92808 -2.9301,2.92808l-31.38353,0l0,0.00402z"/>
    <path fill="#ffffff" id="path3000" d="m527.654543,66.604917l0,-13.70406l-15.78662,0c-1.6063,0 -2.93009,-1.32581 -2.93009,-2.9321c0,-1.60834 1.32178,-2.9281 2.93009,-2.9281l19.0961,0c1.51348,0 2.9301,1.31976 2.9301,2.9281l0,16.54133c0,1.1341 -0.37938,2.07851 -1.22895,3.11978c-4.53843,5.29315 -11.15536,10.39661 -22.59325,10.39661c-18.33933,0 -29.4927,-9.82955 -29.4927,-33.08469c0,-22.40356 11.15337,-33.17955 29.4927,-33.17955c8.97999,0 16.82791,3.87251 21.26946,10.01925c0.4722,0.66391 0.6619,1.32582 0.6619,1.98368c0,1.70316 -1.32379,3.0229 -3.02495,3.0229c-0.85159,0 -1.70317,-0.2825 -2.45789,-1.22488c-3.21463,-4.44359 -9.26452,-7.94075 -16.44852,-7.94075c-14.55766,0 -22.87575,8.7883 -22.87575,27.31935c0,19.66111 8.3201,27.22449 22.87575,27.22449c8.79032,0.00094 14.46283,-3.6828 17.58262,-7.56136z"/>
    <path fill="#ffffff" id="path3002" d="m553.091103,76.248837c0,1.70316 -1.41862,3.21059 -3.21462,3.21059c-1.796,0 -3.21463,-1.50743 -3.21463,-3.21059l0,-58.70288c0,-1.70318 1.41863,-3.21463 3.21463,-3.21463c1.796,0 3.21462,1.51145 3.21462,3.21463l0,58.70288z"/>
    <path fill="#ffffff" id="path3004" d="m571.430463,78.706707c-1.79599,0 -3.21464,-1.41661 -3.21464,-3.21463l0,-57.19141c0,-1.79397 1.41865,-3.21463 3.21464,-3.21463l30.3463,0c1.6063,0 2.92606,1.32378 2.92606,2.93212c0,1.60629 -1.31976,2.92808 -2.92606,2.92808l-27.13167,0l0,22.78293l20.79725,0c1.60631,0 2.9301,1.32178 2.9301,2.92808c0,1.60834 -1.32379,2.93213 -2.9301,2.93213l-20.79725,0l0,23.2531l28.17093,0c1.60833,0 2.92807,1.3238 2.92807,2.93213c0,1.60629 -1.31974,2.92808 -2.92807,2.92808l-31.38556,0l0,0.00402z"/>
    <path fill="#ffffff" id="path3006" d="m664.737563,66.604917l-19.75798,-36.77151l0,46.51026c0,1.70116 -1.41662,3.11374 -3.11978,3.11374c-1.69915,0 -3.11778,-1.41258 -3.11778,-3.11374l0,-58.89459c0,-1.70316 1.41863,-3.11977 3.11778,-3.11977c1.42065,0 2.36506,0.84955 2.83726,1.79396l22.87778,42.82344l22.96658,-42.82344c0.38138,-0.65786 1.1341,-1.79396 2.83727,-1.79396c1.70316,0 3.1218,1.41661 3.1218,3.11977l0,58.89459c0,1.70116 -1.41864,3.11374 -3.1218,3.11374c-1.70317,0 -3.11778,-1.41258 -3.11778,-3.11374l0,-46.51026l-19.85081,36.77151c-0.66393,1.23098 -1.70317,1.80004 -2.83526,1.80004c-0.94441,0 -2.17537,-0.47624 -2.83728,-1.80004z"/>
    <path fill="#ffffff" id="path3008" d="m714.845903,78.706707c-1.79398,0 -3.21665,-1.41661 -3.21665,-3.21463l0,-57.19141c0,-1.79397 1.42267,-3.21463 3.21665,-3.21463l30.34428,0c1.60834,0 2.93212,1.32378 2.93212,2.93212c0,1.60629 -1.32378,2.92808 -2.93212,2.92808l-27.13166,0l0,22.78293l20.79926,0c1.60832,0 2.93212,1.32178 2.93212,2.92808c0,1.60834 -1.3238,2.93213 -2.93212,2.93213l-20.79926,0l0,23.2531l28.17293,0c1.60832,0 2.9281,1.3238 2.9281,2.93213c0,1.60629 -1.31978,2.92808 -2.9281,2.92808l-31.38555,0l0,0.00402z"/>
    <path fill="#ffffff" id="path3010" d="m792.931423,72.656837c1.70317,0 3.02697,1.32177 3.02697,3.02291c0,1.70317 -1.3238,3.02495 -3.02697,3.02495l-29.11534,0c-1.79801,0 -3.21262,-1.41661 -3.21262,-3.21463l0,-57.94613c0,-1.79802 1.41461,-3.21463 3.21262,-3.21463c1.798,0 3.21261,1.41661 3.21261,3.21463l0,55.1129l25.90273,0z"/>
    <path fill="#ffffff" id="path3012" d="m838.596163,72.656837c1.69914,0 3.02293,1.32177 3.02293,3.02291c0,1.70317 -1.32379,3.02495 -3.02293,3.02495l-29.11936,0c-1.79801,0 -3.21261,-1.41661 -3.21261,-3.21463l0,-57.94613c0,-1.79802 1.4146,-3.21463 3.21261,-3.21463c1.79801,0 3.21665,1.41661 3.21665,3.21463l0,55.1129l25.90271,0z"/>
    <path fill="#ffffff" id="path3014" d="m842.852073,46.943797c0,-22.40356 11.15336,-33.17954 29.4927,-33.17954c18.33933,0 29.4927,10.778 29.4927,33.17954c0,22.21386 -11.15337,33.0847 -29.4927,33.0847c-18.33934,0 -29.4927,-10.87084 -29.4927,-33.0847zm6.61897,0c0,18.43219 8.4109,27.2245 22.87574,27.2245c14.46485,0 22.87978,-8.79231 22.87978,-27.2245c0,-18.53105 -8.41493,-27.31935 -22.87978,-27.31935c-14.46484,0 -22.87574,8.79031 -22.87574,27.31935z"/>
    <path fill="#ffffff" id="path3016" d="m957.999703,17.451107l0,58.79773c0,1.79801 -1.4226,3.21059 -3.2166,3.21059c-1.1342,0 -1.9857,-0.46616 -2.6476,-1.31975l-33.27241,-50.1951l0,48.40111c0,1.70116 -1.41862,3.11374 -3.1177,3.11374c-1.70317,0 -3.12188,-1.41258 -3.12188,-3.11374l0,-58.89458c0,-1.70317 1.41871,-3.11978 3.12188,-3.11978c1.13406,0 2.07647,0.65786 2.55071,1.32176l33.462,50.28995l0,-48.49193c0,-1.70317 1.4227,-3.11978 3.1219,-3.11978c1.6991,0 3.1197,1.41661 3.1197,3.11978z"/>
   </g>
   <g id="g3163">
    <path fill="#ffffff" id="path3018" d="m228.390063,161.529867c13.46736,0 21.56837,-6.10326 21.56837,-24.40826c0,-18.305 -8.10101,-24.51353 -21.56837,-24.51353l-8.10101,0l0,19.72136l0,17.61955c0,3.03607 -2.46187,5.49914 -5.49914,5.49914l-0.83858,0c-3.22627,0 -5.86641,-2.64011 -5.86641,-5.86639l0,-17.39108l0,-24.4226c0,-3.36625 2.73584,-6.10207 6.10327,-6.10207l14.20307,0c20.93674,0 34.19357,9.46951 34.19357,35.45682c0,25.9873 -13.25683,35.35034 -34.19357,35.35034l-14.20307,0c-3.36743,0 -6.10327,-2.73582 -6.10327,-6.10325c0,-2.63893 2.13532,-4.78141 4.77424,-4.78979l15.5309,-0.0502l0,-0.00004z"/>
    <path fill="#ffffff" id="path3020" d="m284.043143,154.056907l-6.41788,15.25575c-0.94742,2.20828 -2.94516,3.99667 -5.68098,3.99667c-3.26217,0 -5.9968,-2.73342 -5.9968,-5.99679c0,-0.63043 0.10528,-1.47258 0.42109,-2.20948l24.82814,-60.4919c0.63042,-1.47258 2.31475,-3.78852 5.57572,-3.78852c3.26097,0 4.94409,2.31594 5.57571,3.78852l24.82814,60.4919c0.31581,0.7357 0.42108,1.57785 0.42108,2.20948c0,3.26337 -2.73581,5.99679 -5.99678,5.99679c-2.73583,0 -4.73476,-1.78839 -5.681,-3.99667l-6.41667,-15.25575l-8.65367,0c-2.76572,0 -5.04219,-2.2633 -5.06013,-5.02784l-0.007,-1.09577c-0.0179,-2.76572 2.23101,-5.02783 4.99672,-5.02783l4.61993,0l-8.62616,-22.09351l-8.62614,22.09351"/>
    <path fill="#ffffff" id="path3022" d="m354.951983,112.395147l0,54.81451c0,3.36505 -2.73582,6.10087 -6.10206,6.10087c-3.36624,0 -6.10207,-2.73462 -6.10207,-6.10087l0,-54.81451l-16.09671,0c-2.94637,0 -5.36519,-2.41881 -5.36519,-5.36399c0,-2.94516 2.41882,-5.36637 5.36519,-5.36637l44.39637,0c2.94636,0 5.36637,2.42121 5.36637,5.36637c0,2.94518 -2.41881,5.36399 -5.36637,5.36399l-16.09553,0z"/>
    <path fill="#ffffff" id="path3024" d="m588.610483,111.133107c-8.73381,0 -11.9924,4.10433 -11.9924,8.31272c0,13.78199 38.40199,7.36411 38.40199,33.66603c0,12.83456 -9.04844,20.83029 -26.4084,20.83029c-12.52114,0 -22.51339,-6.20615 -26.61653,-12.83455c-0.52755,-0.84217 -0.84336,-1.89487 -0.84336,-2.94756c0,-3.15691 2.52529,-5.67979 5.57691,-5.67979c2.31594,0 3.57679,1.26324 4.62829,2.31354c4.42014,4.41894 9.99466,7.99692 17.25469,7.99692c9.57478,0 14.20307,-3.15689 14.20307,-9.67885c0,-15.35983 -38.39959,-8.31153 -38.39959,-33.66603c0,-10.41573 7.46698,-19.25361 24.19652,-19.25361c10.52101,0 19.67471,3.89258 23.88311,9.88819c0.63042,0.94743 1.05151,2.10659 1.05151,3.36623c0,3.05284 -2.52528,5.57691 -5.6798,5.57691c-1.47377,0 -2.94635,-0.84215 -4.52541,-2.31353c-3.26336,-3.15691 -8.73261,-5.57691 -14.7306,-5.57691z"/>
    <path fill="#ffffff" id="path3026" d="m636.897063,131.440617l19.88525,0c2.94636,0 5.36637,2.41762 5.36637,5.36279c0,2.94636 -2.42001,5.36637 -5.36637,5.36637l-19.88525,0l0,19.36009l27.88337,0c3.04923,0 5.46924,2.41762 5.46924,5.46805c0,3.05163 -2.42001,5.47164 -5.46924,5.47164l-33.98304,0c-3.36625,0 -6.10327,-2.73702 -6.10327,-6.10086l0,-58.60183c0,-3.36626 2.73583,-6.10447 6.10327,-6.10447l32.82388,0c3.05162,0 5.47164,2.42121 5.47164,5.47165c0,3.05403 -2.42002,5.47164 -5.47164,5.47164l-26.72421,0l0,18.83493z"/>
    <path fill="#ffffff" id="path3028" d="m751.047913,145.221407l-14.31073,0c-2.94396,0 -5.36397,-2.42121 -5.36397,-5.36637c0,-2.94516 2.42001,-5.36398 5.36397,-5.36398l20.41039,0c2.94637,0 5.78747,2.52647 5.78747,5.57452l0,16.83361c0,2.41881 -0.52517,3.99667 -1.7896,5.57451c-5.04936,6.73609 -16.2008,11.46845 -27.45749,11.46845c-20.93675,0 -32.93154,-11.04617 -32.93154,-36.82173c0,-24.93342 11.99479,-36.92701 32.93154,-36.92701c12.72928,0 21.042,5.05055 25.35448,11.36197c0.83858,1.26324 1.15678,2.31354 1.15678,3.47152c0,3.05043 -2.52527,5.57691 -5.67979,5.57691c-1.47377,0 -2.94876,-0.63162 -4.31487,-2.1066c-4.31247,-4.73475 -8.83908,-7.3641 -16.5166,-7.3641c-13.99492,0 -20.30634,8.62854 -20.30634,25.98731c0,18.41146 6.31022,25.88083 20.30634,25.88083c7.78278,0 13.25442,-1.78718 17.35996,-5.9956l0,-11.78424z"/>
    <path fill="#ffffff" id="path3030" d="m830.684583,137.120417c0,-24.93342 12.09767,-36.92701 33.35022,-36.92701c21.25259,0 33.35023,11.99359 33.35023,36.92701c0,24.6176 -12.09764,36.82173 -33.35023,36.82173c-21.25255,0 -33.35022,-12.20413 -33.35022,-36.82173zm12.62401,0c0,17.36116 6.83896,25.88083 20.72621,25.88083c13.88728,0 20.72623,-8.51967 20.72623,-25.88083c0,-17.46405 -6.83895,-25.98731 -20.72623,-25.98731c-13.88725,0 -20.72621,8.52326 -20.72621,25.98731z"/>
    <path fill="#ffffff" id="path3032" d="m907.273213,149.324537l0,-42.39864c0,-3.36624 2.73347,-6.10207 6.10322,-6.10207c3.3663,0 6.10332,2.73463 6.10332,6.10207l0,42.39864c0,6.41667 2.41762,13.88607 14.30595,13.88607c11.8895,0 14.3084,-7.4694 14.3084,-13.88607l0,-42.39864c0,-3.36624 2.7357,-6.10207 6.1031,-6.10207c3.3675,0 6.1034,2.73463 6.1034,6.10207l0,42.39864c0,11.99359 -5.2612,24.61761 -26.5138,24.61761c-21.25248,0 -26.51359,-12.62402 -26.51359,-24.61761z"/>
    <path fill="#ffffff" id="path3034" d="m984.598803,144.905597l0,22.30406c0,3.36625 -2.7358,6.10206 -6.1034,6.10206c-3.3649,0 -6.1007,-2.73462 -6.1007,-6.10206l0,-59.44041c0,-3.36624 2.7345,-6.10326 6.1007,-6.10326l20.0959,0c12.3081,0 22.0923,6.83776 22.0923,21.56837c0,14.51647 -9.5735,21.67124 -22.0923,21.67124l-2.694,-0.00093c-2.7657,-0.003 -5.0422,-2.26689 -5.0601,-5.03142l-0.01,-0.88164c-0.019,-2.76572 2.2297,-5.02782 4.9955,-5.02782l1.8159,0c6.523,0 10.4157,-3.89141 10.4157,-10.72915c0,-6.94543 -3.9979,-10.6263 -10.4157,-10.6263l-13.0439,0l0,21.35545l0,10.94209l0.0041,-0.00028z"/>
    <path fill="#ffffff" id="path3036" d="m388.384743,154.479177l-6.41787,15.25696c-0.94743,2.20827 -2.94516,3.99667 -5.68218,3.99667c-3.26098,0 -5.99679,-2.73462 -5.99679,-5.99681c0,-0.63161 0.10407,-1.47257 0.42108,-2.20946l24.82934,-60.4967c0.63161,-1.47258 2.31474,-3.78852 5.57691,-3.78852c3.26098,0 4.94529,2.31594 5.57571,3.78852l24.82935,60.4967c0.317,0.73569 0.42107,1.57665 0.42107,2.20946c0,3.26219 -2.73462,5.99681 -5.99679,5.99681c-2.73583,0 -4.73475,-1.7884 -5.68219,-3.99667l-6.41786,-15.25696l-8.65367,0c-2.76573,0 -5.04219,-2.2633 -5.06013,-5.02783l-0.007,-1.09577c-0.0179,-2.76572 2.231,-5.02783 4.99672,-5.02783l4.62112,0l-8.62736,-22.09592l-8.62734,22.09592"/>
    <path fill="#ffffff" id="path3038" d="m512.837693,154.479177l-6.41788,15.25576c-0.94623,2.20947 -2.94396,3.99787 -5.68099,3.99787c-3.26216,0 -5.99678,-2.73462 -5.99678,-5.99801c0,-0.63041 0.10406,-1.47137 0.42107,-2.20826l24.82934,-60.4955c0.63042,-1.47138 2.31474,-3.78732 5.57571,-3.78732c3.26098,0 4.9453,2.31594 5.57573,3.78732l24.82933,60.4955c0.31701,0.73569 0.42108,1.57665 0.42108,2.20826c0,3.26339 -2.73582,5.99801 -5.99679,5.99801c-2.73463,0 -4.73475,-1.7884 -5.67979,-3.99787l-6.41906,-15.25576l-8.65368,0c-2.76572,0 -5.04218,-2.2633 -5.05894,-5.02783l-0.005,-1.09577c-0.0179,-2.76572 2.231,-5.02783 4.99672,-5.02783l4.61991,0l-8.62735,-22.09472l-8.62734,22.09472"/>
    <path fill="#ffffff" id="path3040" d="m445.505623,172.470757c-3.36624,0 -6.10086,-2.73701 -6.10086,-6.10086l0,-58.60184c0,-3.36625 2.73343,-6.10447 6.10086,-6.10447l18.93782,0c15.88619,0 21.56837,8.62855 21.56837,18.3086c0,6.94421 -3.47152,12.20532 -7.78399,14.30832c7.88687,3.05045 10.94089,8.73262 10.94089,16.93651c0,12.83574 -7.68112,21.25374 -22.82921,21.25374l-20.83388,0zm11.89551,-36.59325c-0.005,-1.39841 0.54549,-2.7418 1.53239,-3.7323c0.98691,-0.99048 2.3279,-1.54674 3.72632,-1.54674l1.78241,0c6.62841,0 9.36304,-3.78734 9.36304,-9.04844c0,-5.46924 -2.73463,-8.94195 -9.36304,-8.94195l-12.83456,0l0,17.99039l0,10.30926l0,20.62214l14.72942,0c7.46818,0 10.41573,-3.99906 10.41573,-10.31285c0,-6.41669 -3.4715,-10.30929 -10.41573,-10.30929l-3.88542,0c-2.78009,0.00094 -5.03859,-2.24774 -5.05056,-5.03022z"/>
    <path fill="#ffffff" id="path3042" d="m823.682943,163.089767l-15.20552,-18.91627c8.50414,-2.46308 14.34301,-9.28768 14.34301,-20.61018c0,-14.7294 -9.7853,-21.56836 -22.09351,-21.56836l-20.09578,0c-3.36624,0 -6.10086,2.73582 -6.10086,6.10326l0,59.44161c0,3.36624 2.73342,6.10206 6.10086,6.10206c3.36743,0 6.10327,-2.73463 6.10327,-6.10206l0,-22.30407l0,-10.94209l0,-21.35543l13.04388,0c6.41789,0 10.41574,3.67967 10.41574,10.62508c0,6.83777 -3.89259,10.73035 -10.41574,10.73035l-1.8135,0c-2.76813,0 -5.01588,2.26211 -4.99793,5.02664l0.005,0.88163c0.007,0.90915 0.27394,1.75251 0.70578,2.48821l-0.13039,0.008l20.56233,27.96711c1.0515,1.3697 2.94396,2.20826 4.73356,2.20826c3.36623,0 6.10325,-2.73462 6.10325,-6.10086c0,-1.15916 -0.31701,-2.42001 -1.26323,-3.68326l-0.00022,0.00037z"/>
   </g>
  </g>
  <g id="g3044">
   <g id="g3046">
    <path fill="#ffffff" d="m87.385803,65.938791c0,-8.151 -6.387,-14.847 -14.528,-15.247c-41.244,-2.028 -72.672,-12.545 -72.672,-25.216l0,33.04c0,12.406 30.127,22.747 70.096,25.078c4.439,0.259 8.787,-1.325 12.022,-4.375c3.236,-3.049 5.083,-7.3 5.083,-11.747l0,-1.533l-0.001,0z" id="path3048"/>
    <path fill="#ffffff" d="m117.392803,63.404791c0.084,4.796 2.296,9.306 6.036,12.309c3.74,3.003 8.621,4.186 13.323,3.237c22.853,-4.61 37.835,-12.332 37.835,-21.082l0,-33.04c0,9.481 -17.597,17.758 -43.738,22.173c-7.869,1.329 -13.6,8.208 -13.46,16.188l0.004,0.215z" id="path3050"/>
    <path fill="#ffffff" d="m67.765803,116.209791c0.001,-4.309 1.725,-8.438 4.786,-11.469c3.062,-3.032 7.208,-4.714 11.516,-4.674c0.927,0.009 1.857,0.013 2.792,0.013c48.162,0 87.202,-11.446 87.202,-25.57l0,33.039c0,14.124 -39.041,25.571 -87.202,25.571c-1.041,0 -2.078,-0.006 -3.11,-0.016c-8.854,-0.092 -15.986,-7.296 -15.983,-16.151l-0.001,-0.743z" id="path3052"/>
    <path fill="#ffffff" d="m87.385803,166.874791c0,-8.589 -6.722,-15.682 -15.299,-16.127c-40.863,-2.12 -71.9,-12.585 -71.9,-25.177l0,33.039c0,12.385 30.023,22.713 69.89,25.066c4.491,0.266 8.89,-1.335 12.165,-4.419c3.275,-3.084 5.144,-7.385 5.144,-11.883l0,-0.499z" id="path3054"/>
    <path fill="#ffffff" d="m117.389803,163.933791c-0.141,-7.995 5.576,-14.859 13.46,-16.19c26.141,-4.416 43.738,-12.692 43.738,-22.174l0,33.04c0,8.725 -14.899,16.428 -37.643,21.041c-4.744,0.963 -9.669,-0.235 -13.445,-3.264c-3.776,-3.029 -6.025,-7.582 -6.11,-12.422l0,-0.031z" id="path3056"/>
    <path fill="none" stroke="#ffffff" stroke-width="5.8376" stroke-miterlimit="10" d="m47.509803,51.221791c-26.541,-4.326 -44.591,-12.84 -44.591,-22.637c0,-14.177 37.796,-25.666 84.42,-25.666c46.626,0 84.423,11.489 84.423,25.666c0,7.693 -10.211,14.608 -27.298,19.023" id="path3058"/>
    <path fill="#ffffff" d="m43.619803,110.774791c0.005,5.036 -2.396,9.771 -6.461,12.744c-4.066,2.972 -9.308,3.824 -14.105,2.291c-14.236,-4.552 -22.925,-10.619 -22.925,-17.281l0,-33.045c0,7.871 12.125,14.911 31.195,19.602c7.206,1.772 12.288,8.232 12.296,15.652l0,0.037z" id="path3060"/>
   </g>
  </g>
 </g>
</svg>