<?xml version="1.0" encoding="UTF-8" standalone="no"?>
<!-- Generator: Adobe Illustrator 16.0.0, SVG Export Plug-In . SVG Version: 6.00 Build 0)  -->

<svg
   xmlns:dc="http://purl.org/dc/elements/1.1/"
   xmlns:cc="http://creativecommons.org/ns#"
   xmlns:rdf="http://www.w3.org/1999/02/22-rdf-syntax-ns#"
   xmlns:svg="http://www.w3.org/2000/svg"
   xmlns="http://www.w3.org/2000/svg"
   xmlns:sodipodi="http://sodipodi.sourceforge.net/DTD/sodipodi-0.dtd"
   xmlns:inkscape="http://www.inkscape.org/namespaces/inkscape"
   version="1.1"
   id="Capa_1"
   x="0px"
   y="0px"
   width="718.89825"
   height="125.0835"
   viewBox="0 0 718.89825 125.08348"
   xml:space="preserve"
   inkscape:version="0.91 r13725"
   sodipodi:docname="peloton-dark.svg"
   inkscape:export-filename="/home/pavlo/Dropbox/Images/Logos/peloton-full.png"
   inkscape:export-xdpi="206.03999"
   inkscape:export-ydpi="206.03999"><metadata
     id="metadata3364"><rdf:RDF><cc:Work
         rdf:about=""><dc:format>image/svg+xml</dc:format><dc:type
           rdf:resource="http://purl.org/dc/dcmitype/StillImage" /><dc:title></dc:title></cc:Work></rdf:RDF></metadata><defs
     id="defs3362" /><sodipodi:namedview
     pagecolor="#ffffff"
     bordercolor="#666666"
     borderopacity="1"
     objecttolerance="10"
     gridtolerance="10"
     guidetolerance="10"
     inkscape:pageopacity="0"
     inkscape:pageshadow="2"
     inkscape:window-width="1964"
     inkscape:window-height="1123"
     id="namedview3360"
     showgrid="false"
     fit-margin-top="0"
     fit-margin-left="0"
     fit-margin-right="0"
     fit-margin-bottom="0"
     inkscape:zoom="1.4155725"
     inkscape:cx="248.60913"
     inkscape:cy="90.823802"
     inkscape:window-x="0"
     inkscape:window-y="0"
     inkscape:window-maximized="1"
     inkscape:current-layer="Capa_1" /><g
     id="g4161"
     transform="translate(-4.6099591e-6,-7.6293945e-6)"
     inkscape:export-xdpi="200.31"
     inkscape:export-ydpi="200.31"
     style="fill:#333333"><g
       transform="matrix(-1,0,0,1,166.71873,-20.816)"
       style="fill:#333333;fill-opacity:1;stroke-width:100;stroke-miterlimit:4;stroke-dasharray:none"
       id="g3322"><path
         style="fill:#333333;fill-opacity:1;stroke-width:100;stroke-miterlimit:4;stroke-dasharray:none"
         inkscape:connector-curvature="0"
         id="path3324"
         d="M 3.603,128.627 C -4.414,112.575 1.339,93.353 17.006,84.606 c 6.558,-3.66 17.75,-4.752 17.751,-4.752 10.466,-1.787 28.605,-7.668 32.804,-27.038 0.235,-1.091 0.979,-2.003 1.998,-2.457 1.019,-0.454 2.194,-0.394 3.163,0.161 l 29.371,16.827 c 1.678,0.961 2.259,3.1 1.297,4.777 -0.961,1.679 -3.102,2.256 -4.776,1.297 L 73.138,58.826 C 68.095,73.465 54.803,83.532 35.959,86.75 l 0,0 c 10e-4,0 -10.271,1.135 -15.661,4.031 -12.4,6.672 -17.025,22.062 -10.521,34.549 10.284,19.74 28.53,13.729 34.55,10.521 6.02,-3.208 10.35,-8.596 12.414,-15.096 4.07,-12.812 -3.305,-23.437 -8.022,-27.019 -1.54,-1.17 -1.68,-3.448 -0.438,-4.933 1.241,-1.481 3.447,-1.678 4.931,-0.438 3.2,2.68 15.728,13.826 10.229,34.426 -2.241,8.396 -8.232,14.99 -15.817,19.232 -9.686,5.423 -33.186,8.298 -44.021,-13.396 z" /><path
         style="fill:#333333;fill-opacity:1;stroke-width:100;stroke-miterlimit:4;stroke-dasharray:none"
         inkscape:connector-curvature="0"
         id="path3326"
         d="M 105.353,124.377 C 95.91,109.42 106.08,92.44 106.643,91.543 123.349,64.981 113.25,57.736 109.451,55.009 109.205,54.833 82.28,38.933 82.28,38.933 c -1.666,-0.98 -2.223,-3.125 -1.241,-4.791 0.979,-1.667 3.127,-2.222 4.791,-1.242 0,0 27.448,16.267 27.7,16.421 4.618,2.834 19.252,13.811 -0.96,45.947 -0.363,0.575 -7.369,13.646 -0.381,25.554 10.408,17.74 27.812,13.879 33.891,10.781 16.734,-8.531 15.484,-25.531 10.52,-34.553 -5.573,-10.118 -17.074,-15.484 -28.313,-12.863 -1.888,0.438 -3.766,-0.73 -4.203,-2.613 -0.438,-1.882 0.729,-3.765 2.612,-4.204 14.312,-3.339 29.085,3.438 36.081,16.389 5.165,9.562 8.915,33.188 -13.4,44.021 -11.289,5.474 -30.563,7.916 -44.024,-13.403 z" /></g><path
       style="fill:#333333;fill-opacity:1;stroke-width:100;stroke-miterlimit:4;stroke-dasharray:none"
       inkscape:connector-curvature="0"
       id="path3328"
       d="M 97.99072,16.417 C 97.99072,7.3650002 105.35473,0 114.40673,0 c 9.055,0 16.418,7.3650002 16.418,16.417 0,9.052 -7.362,16.417 -16.418,16.417 -9.051,0 -16.41601,-7.365 -16.41601,-16.417 z m 25.72701,0 c 0,-5.133 -4.178,-9.3089998 -9.311,-9.3089998 -5.133,0 -9.308,4.1759998 -9.308,9.3089998 0,5.133 4.175,9.309 9.308,9.309 5.133,0 9.311,-4.177 9.311,-9.309 z" /></g><g
     id="g3330"
     transform="translate(-8.8245152e-4,-20.816008)"
     inkscape:export-xdpi="200.31"
     inkscape:export-ydpi="200.31"
     style="fill:#ffffff" /><g
     id="g3332"
     transform="translate(-8.8245152e-4,-20.816008)"
     inkscape:export-xdpi="200.31"
     inkscape:export-ydpi="200.31"
     style="fill:#ffffff" /><g
     id="g3334"
     transform="translate(-8.8245152e-4,-20.816008)"
     inkscape:export-xdpi="200.31"
     inkscape:export-ydpi="200.31"
     style="fill:#ffffff" /><g
     id="g3336"
     transform="translate(-8.8245152e-4,-20.816008)"
     inkscape:export-xdpi="200.31"
     inkscape:export-ydpi="200.31"
     style="fill:#ffffff" /><g
     id="g3338"
     transform="translate(-8.8245152e-4,-20.816008)"
     inkscape:export-xdpi="200.31"
     inkscape:export-ydpi="200.31"
     style="fill:#ffffff" /><g
     id="g3340"
     transform="translate(-8.8245152e-4,-20.816008)"
     inkscape:export-xdpi="200.31"
     inkscape:export-ydpi="200.31"
     style="fill:#ffffff" /><g
     id="g3342"
     transform="translate(-8.8245152e-4,-20.816008)"
     inkscape:export-xdpi="200.31"
     inkscape:export-ydpi="200.31"
     style="fill:#ffffff" /><g
     id="g3344"
     transform="translate(-8.8245152e-4,-20.816008)"
     inkscape:export-xdpi="200.31"
     inkscape:export-ydpi="200.31"
     style="fill:#ffffff" /><g
     id="g3346"
     transform="translate(-8.8245152e-4,-20.816008)"
     inkscape:export-xdpi="200.31"
     inkscape:export-ydpi="200.31"
     style="fill:#ffffff" /><g
     id="g3348"
     transform="translate(-8.8245152e-4,-20.816008)"
     inkscape:export-xdpi="200.31"
     inkscape:export-ydpi="200.31"
     style="fill:#ffffff" /><g
     id="g3350"
     transform="translate(-8.8245152e-4,-20.816008)"
     inkscape:export-xdpi="200.31"
     inkscape:export-ydpi="200.31"
     style="fill:#ffffff" /><g
     id="g3352"
     transform="translate(-8.8245152e-4,-20.816008)"
     inkscape:export-xdpi="200.31"
     inkscape:export-ydpi="200.31"
     style="fill:#ffffff" /><g
     id="g3354"
     transform="translate(-8.8245152e-4,-20.816008)"
     inkscape:export-xdpi="200.31"
     inkscape:export-ydpi="200.31"
     style="fill:#ffffff" /><g
     id="g3356"
     transform="translate(-8.8245152e-4,-20.816008)"
     inkscape:export-xdpi="200.31"
     inkscape:export-ydpi="200.31"
     style="fill:#ffffff" /><g
     id="g3358"
     transform="translate(-8.8245152e-4,-20.816008)"
     inkscape:export-xdpi="200.31"
     inkscape:export-ydpi="200.31"
     style="fill:#ffffff" /><text
     xml:space="preserve"
     style="font-style:normal;font-weight:normal;font-size:40px;line-height:125%;font-family:Sans;letter-spacing:0px;word-spacing:0px;fill:#333333;fill-opacity:1;stroke:none;stroke-width:1px;stroke-linecap:butt;stroke-linejoin:miter;stroke-opacity:1;"
     x="197.31343"
     y="118.92923"
     id="text4151"
     sodipodi:linespacing="125%"
     inkscape:export-xdpi="200.31"
     inkscape:export-ydpi="200.31"><tspan
       sodipodi:role="line"
       id="tspan4153"
       x="197.31343"
       y="118.92923"
       style="font-style:normal;font-variant:normal;font-weight:600;font-stretch:normal;font-size:162.5px;font-family:'Source Sans Pro';-inkscape-font-specification:'Source Sans Pro Semi-Bold';letter-spacing:-2.09000015px;fill:#333333;">Peloton</tspan></text>
</svg>